<svg viewBox="0 0 100 100" fill="none" xmlns="http://www.w3.org/2000/svg">
  <path d="M85 30C85 30 80 10 50 10C20 10 15 30 15 30C15 30 10 50 20 70C30 90 50 95 50 95C50 95 70 90 80 70C90 50 85 30 85 30Z" stroke="#0d9488" stroke-width="5" stroke-linecap="round" stroke-linejoin="round"/>
  <path d="M32 35 L41 58 L50 42 L59 58 L68 35" stroke="#0d9488" stroke-width="5" stroke-linecap="round" stroke-linejoin="round"/>
  <path d="M55 72 L75 72" stroke="#0d9488" stroke-width="3" stroke-linecap="round"/>
  <path d="M58 78 L72 78" stroke="#0d9488" stroke-width="3" stroke-linecap="round"/>
  <path d="M62 84 L68 84" stroke="#0d9488" stroke-width="3" stroke-linecap="round"/>
</svg>
